<svg width="220" height="320" viewBox="0 0 44 64" fill="none" xmlns="http://www.w3.org/2000/svg" shape-rendering="crispEdges">
  <defs>
    <filter id="pixelGlow" x="-35%" y="-35%" width="170%" height="170%">
      <feGaussianBlur stdDeviation="1.2" result="blur"/>
      <feColorMatrix in="blur" type="matrix" values="1 0 0 0 0.9  0 1 0 0 0.75  0 0 1 0 0.05  0 0 0 1 0"/>
      <feMerge>
        <feMergeNode/>
        <feMergeNode in="SourceGraphic"/>
      </feMerge>
    </filter>
  </defs>

  <g filter="url(#pixelGlow)" opacity="0.86">
    <rect x="20" y="0" width="4" height="4" fill="#fff45c">
      <animate attributeName="opacity" values="0.45;1;0.45" dur="1.5s" repeatCount="indefinite"/>
    </rect>
    <rect x="11" y="7" width="3" height="5" fill="#00e5ff">
      <animate attributeName="opacity" values="1;0.45;1" dur="1.7s" repeatCount="indefinite"/>
    </rect>
    <rect x="31" y="8" width="3" height="5" fill="#ff2bd6">
      <animate attributeName="opacity" values="0.45;1;0.45" dur="1.8s" repeatCount="indefinite"/>
    </rect>
    <rect x="7" y="20" width="3" height="4" fill="#fff45c">
      <animate attributeName="opacity" values="0.55;1;0.55" dur="1.4s" repeatCount="indefinite"/>
    </rect>
    <rect x="35" y="20" width="3" height="4" fill="#00e5ff">
      <animate attributeName="opacity" values="1;0.5;1" dur="1.6s" repeatCount="indefinite"/>
    </rect>
  </g>

  <g>
    <rect x="17" y="2" width="3" height="6" fill="#050505"/>
    <rect x="20" y="0" width="5" height="10" fill="#050505"/>
    <rect x="25" y="3" width="4" height="8" fill="#050505"/>
    <rect x="13" y="7" width="5" height="8" fill="#050505"/>
    <rect x="29" y="9" width="5" height="10" fill="#050505"/>
    <rect x="10" y="14" width="5" height="8" fill="#050505"/>
    <rect x="34" y="17" width="4" height="8" fill="#050505"/>
    <rect x="13" y="22" width="4" height="5" fill="#050505"/>
    <rect x="30" y="24" width="4" height="5" fill="#050505"/>

    <rect x="18" y="5" width="3" height="8" fill="#ffe600"/>
    <rect x="21" y="3" width="3" height="12" fill="#ffe600"/>
    <rect x="24" y="6" width="3" height="10" fill="#ffc400"/>
    <rect x="27" y="9" width="3" height="12" fill="#ffe600"/>
    <rect x="15" y="10" width="3" height="11" fill="#ffd000"/>
    <rect x="12" y="16" width="3" height="6" fill="#ffe600"/>
    <rect x="30" y="15" width="3" height="10" fill="#ffd000"/>
    <rect x="33" y="20" width="3" height="4" fill="#ffe600"/>
    <rect x="18" y="14" width="4" height="10" fill="#ffb300"/>
    <rect x="23" y="16" width="5" height="9" fill="#ffcc00"/>
  </g>

  <g>
    <rect x="15" y="22" width="18" height="14" fill="#050505"/>
    <rect x="17" y="23" width="14" height="11" fill="#ffd9b3"/>
    <rect x="17" y="23" width="3" height="5" fill="#f7c28e"/>
    <rect x="28" y="24" width="3" height="5" fill="#f7c28e"/>
    <rect x="19" y="28" width="4" height="3" fill="#f4faff"/>
    <rect x="27" y="28" width="3" height="3" fill="#f4faff"/>
    <rect x="22" y="28" width="2" height="3" fill="#12f280"/>
    <rect x="26" y="28" width="1" height="3" fill="#050505"/>
    <rect x="20" y="33" width="9" height="2" fill="#050505"/>
  </g>

  <g>
    <rect x="13" y="35" width="20" height="18" fill="#050505"/>
    <rect x="16" y="35" width="14" height="15" fill="#ff7a00"/>
    <rect x="19" y="35" width="3" height="15" fill="#ff9d00"/>
    <rect x="16" y="35" width="3" height="4" fill="#1aa7ff"/>
    <rect x="27" y="35" width="3" height="4" fill="#1aa7ff"/>
    <rect x="18" y="45" width="10" height="3" fill="#0958ff"/>
    <rect x="21" y="48" width="3" height="5" fill="#050505"/>
  </g>

  <g>
    <rect x="6" y="36" width="10" height="9" fill="#050505"/>
    <rect x="8" y="38" width="6" height="5" fill="#ffd9b3"/>
    <rect x="4" y="40" width="5" height="4" fill="#050505"/>
    <rect x="5" y="41" width="3" height="2" fill="#ffd9b3"/>
    <rect x="12" y="39" width="3" height="6" fill="#1aa7ff"/>

    <rect x="31" y="36" width="10" height="9" fill="#050505"/>
    <rect x="33" y="38" width="6" height="5" fill="#ffd9b3"/>
    <rect x="39" y="40" width="4" height="4" fill="#050505"/>
    <rect x="40" y="41" width="2" height="2" fill="#ffd9b3"/>
    <rect x="31" y="39" width="3" height="6" fill="#1aa7ff"/>
  </g>

  <g>
    <rect x="14" y="51" width="8" height="10" fill="#050505"/>
    <rect x="16" y="52" width="5" height="7" fill="#ff7a00"/>
    <rect x="23" y="51" width="8" height="10" fill="#050505"/>
    <rect x="24" y="52" width="5" height="7" fill="#ff7a00"/>
    <rect x="13" y="59" width="10" height="5" fill="#050505"/>
    <rect x="25" y="59" width="10" height="5" fill="#050505"/>
    <rect x="15" y="60" width="2" height="2" fill="#00e5ff"/>
    <rect x="17" y="60" width="2" height="2" fill="#fff45c"/>
    <rect x="19" y="60" width="2" height="2" fill="#ff2b2b"/>
    <rect x="27" y="60" width="2" height="2" fill="#00e5ff"/>
    <rect x="29" y="60" width="2" height="2" fill="#fff45c"/>
    <rect x="31" y="60" width="2" height="2" fill="#ff2b2b"/>
  </g>
</svg>
